<svg xmlns="http://www.w3.org/2000/svg" width="29.239" height="26.802" viewBox="0 0 29.239 26.802"><defs><style>.a{fill:#fff;}</style></defs><g transform="translate(0 -1.06)"><g transform="translate(0 1.915)"><path class="a" d="M4.508,1.762,7.422,9.894H0Z" transform="translate(0 -1.762)"/></g><g transform="translate(6.177 1.06)"><path class="a" d="M12.367,1.99,7.784,8.622,5.07,1.06h6.662Z" transform="translate(-5.07 -1.06)"/></g><g transform="translate(10.174 3.638)"><path class="a" d="M17.242,9.585H8.351L12.8,3.176Z" transform="translate(-8.351 -3.176)"/></g><g transform="translate(15.765 1.06)"><path class="a" d="M20.237,1.06l-2.7,7.562L12.94,1.99l.636-.93Z" transform="translate(-12.94 -1.06)"/></g><g transform="translate(21.829 1.915)"><path class="a" d="M25.328,9.894h-7.41l2.914-8.132Z" transform="translate(-17.918 -1.762)"/></g><g transform="translate(0.274 11.908)"><path class="a" d="M13.736,25.919l-.224-.273L.225,9.964H8.033l5.541,15.5Z" transform="translate(-0.225 -9.964)"/></g><g transform="translate(10.062 11.908)"><path class="a" d="M17.374,9.964,12.817,22.695,8.259,9.964Z" transform="translate(-8.259 -9.964)"/></g><g transform="translate(15.454 11.908)"><path class="a" d="M26.2,9.964,12.909,25.646l-.224.261.149-.434L18.388,9.964Z" transform="translate(-12.685 -9.964)"/></g></g></svg>